<svg xmlns="http://www.w3.org/2000/svg" width="24" height="24" viewBox="0 0 24 24">
    <path data-name="패스 5446" d="M13.505 28.758A5.225 5.225 0 0 0 9.789 30.3l-.409.409-.417-.417a5.247 5.247 0 1 0-7.421 7.421L8.9 45.071l.015.015a.662.662 0 0 0 .931 0l7.359-7.359a5.252 5.252 0 0 0-3.7-8.966zm2.766 8.027-6.888 6.892-6.9-6.9a3.92 3.92 0 1 1 5.541-5.547l.885.885a.687.687 0 0 0 .939 0l.881-.881a3.923 3.923 0 1 1 5.543 5.551z" transform="translate(2.976 -25.25)" style="stroke:#fff;stroke-width:.5px;fill:#fff"/>
</svg>
